<mxfile host="app.diagrams.net" modified="2023-12-14T14:01:50.042Z" agent="Mozilla/5.0 (Windows NT 6.1; Win64; x64; rv:109.0) Gecko/20100101 Firefox/115.0" version="21.6.8" etag="Sy0EDGDJdsMyon34MXdy" type="github">
  <diagram name="Страница — 1" id="nnuOMQgNuO-AqdsZPGQ-">
    <mxGraphModel>
      <root>
        <mxCell id="0" />
        <mxCell id="1" parent="0" />
      </root>
    </mxGraphModel>
  </diagram>
</mxfile>
